<svg width="20" height="28" viewBox="0 0 20 28" fill="none" xmlns="http://www.w3.org/2000/svg">
<path d="M16.75 12.5C16.75 17.75 10 22.25 10 22.25C10 22.25 3.25 17.75 3.25 12.5C3.25 10.7098 3.96116 8.9929 5.22703 7.72703C6.4929 6.46116 8.20979 5.75 10 5.75C11.7902 5.75 13.5071 6.46116 14.773 7.72703C16.0388 8.9929 16.75 10.7098 16.75 12.5Z" stroke="black" stroke-width="1.5" stroke-linecap="round" stroke-linejoin="round"/>
<path d="M10 14.75C11.2426 14.75 12.25 13.7426 12.25 12.5C12.25 11.2574 11.2426 10.25 10 10.25C8.75736 10.25 7.75 11.2574 7.75 12.5C7.75 13.7426 8.75736 14.75 10 14.75Z" stroke="black" stroke-width="1.5" stroke-linecap="round" stroke-linejoin="round"/>
</svg>
