<svg width="196" height="14" viewBox="0 0 196 14" fill="none" xmlns="http://www.w3.org/2000/svg">
<path d="M3.93461 4.39041C1.38881 4.97881 -0.197986 7.51958 0.390412 10.0654C0.97881 12.6112 3.51958 14.198 6.06539 13.6096L3.93461 4.39041ZM5 9C6.06539 13.6096 6.06323 13.6101 6.06114 13.6106C6.06054 13.6107 6.05852 13.6112 6.05732 13.6114C6.0549 13.612 6.05277 13.6125 6.05092 13.6129C6.04722 13.6137 6.04464 13.6143 6.04321 13.6146C6.04034 13.6153 6.04206 13.6149 6.04852 13.6135C6.06145 13.6107 6.09329 13.6039 6.14541 13.5935C6.24973 13.5725 6.43456 13.5368 6.71081 13.4885C7.26377 13.3919 8.17877 13.2454 9.5422 13.0654C12.2709 12.7053 16.7755 12.2139 23.7407 11.7192C37.6751 10.7295 61.3885 9.7311 100.324 9.7311V0.268895C61.2423 0.268895 37.2937 1.27052 23.0703 2.28078C15.9567 2.78605 11.2585 3.29467 8.30419 3.68456C6.82609 3.87963 5.7795 4.04563 5.08124 4.16771C4.73188 4.22879 4.4687 4.27905 4.28141 4.31668C4.18772 4.33551 4.11285 4.3512 4.05554 4.36355C4.02687 4.36973 4.00257 4.37507 3.98248 4.37956C3.97243 4.3818 3.96343 4.38383 3.95546 4.38564C3.95148 4.38654 3.94775 4.38739 3.94427 4.38819C3.94253 4.38859 3.94012 4.38914 3.93925 4.38934C3.9369 4.38988 3.93461 4.39041 5 9ZM100.324 9.7311C139.261 9.7311 162.558 10.7296 176.073 11.7185C182.829 12.2128 187.118 12.7031 189.68 13.0607C190.96 13.2393 191.802 13.3838 192.299 13.4774C192.547 13.5242 192.708 13.558 192.793 13.5766C192.835 13.5859 192.858 13.5913 192.864 13.5927C192.867 13.5933 192.865 13.593 192.859 13.5915C192.856 13.5908 192.852 13.5898 192.847 13.5885C192.845 13.5879 192.842 13.5872 192.839 13.5864C192.837 13.586 192.835 13.5854 192.834 13.5852C192.832 13.5846 192.829 13.5839 194 9C195.171 4.4161 195.168 4.4154 195.165 4.41469C195.164 4.41444 195.162 4.41372 195.16 4.41321C195.156 4.41219 195.151 4.41113 195.147 4.41001C195.138 4.40777 195.128 4.40533 195.117 4.40268C195.096 4.39739 195.071 4.39128 195.041 4.38438C194.983 4.37058 194.909 4.35357 194.818 4.33357C194.635 4.2936 194.383 4.24144 194.051 4.17882C193.387 4.05371 192.395 3.88569 190.988 3.68931C188.176 3.29687 183.675 2.78721 176.764 2.28151C162.946 1.27042 139.404 0.268895 100.324 0.268895V9.7311Z" fill="#433DF2"/>
</svg>
